<svg width="22" height="22" viewBox="0 0 22 22" fill="none" xmlns="http://www.w3.org/2000/svg">
<path d="M11 0.666687C5.293 0.666687 0.666626 5.29306 0.666626 11C0.666626 16.707 5.293 21.3334 11 21.3334C16.7069 21.3334 21.3333 16.707 21.3333 11C21.3333 5.29306 16.7069 0.666687 11 0.666687ZM11 20C6.05563 20 1.99996 15.9977 1.99996 11C1.99996 6.05573 6.00225 2.00002 11 2.00002C15.9443 2.00002 20 6.00231 20 11C20 15.9443 15.9977 20 11 20ZM16.9012 8.54331L9.38121 16.003C9.18517 16.1974 8.86858 16.1962 8.67413 16.0001L5.09588 12.393C4.90142 12.1969 4.90267 11.8804 5.09871 11.6859L5.45371 11.3338C5.64975 11.1393 5.96633 11.1406 6.16079 11.3366L9.03479 14.2338L15.8448 7.4784C16.0409 7.28394 16.3575 7.28519 16.5519 7.48123L16.904 7.83623C17.0985 8.03227 17.0973 8.34885 16.9012 8.54331Z" fill="red"/>
</svg>
