<svg width="24" height="16" viewBox="0 0 24 16" fill="none" xmlns="http://www.w3.org/2000/svg">
<path d="M12.0001 9.33333C12.7073 9.33333 13.3856 9.05238 13.8857 8.55228C14.3858 8.05219 14.6668 7.37391 14.6668 6.66667C14.6668 5.95942 14.3858 5.28115 13.8857 4.78105C13.3856 4.28095 12.7073 4 12.0001 4C11.9584 4 11.9218 4.01 11.8813 4.01208C12.0099 4.36597 12.0347 4.74916 11.9531 5.1167C11.8715 5.48423 11.6867 5.82086 11.4205 6.08708C11.1543 6.3533 10.8177 6.53807 10.4501 6.61969C10.0826 6.70132 9.6994 6.67642 9.34552 6.54792C9.34552 6.58958 9.33343 6.62625 9.33343 6.66667C9.33343 7.01686 9.40241 7.36362 9.53642 7.68716C9.67043 8.01069 9.86686 8.30466 10.1145 8.55228C10.6146 9.05238 11.2929 9.33333 12.0001 9.33333ZM23.8551 7.39167C21.5955 2.98292 17.1222 0 12.0001 0C6.87802 0 2.40343 2.985 0.145099 7.39208C0.0497834 7.58063 0.00012207 7.78894 0.00012207 8.00021C0.00012207 8.21148 0.0497834 8.41979 0.145099 8.60833C2.40468 13.0171 6.87802 16 12.0001 16C17.1222 16 21.5968 13.015 23.8551 8.60792C23.9504 8.41937 24.0001 8.21106 24.0001 7.99979C24.0001 7.78852 23.9504 7.58021 23.8551 7.39167ZM12.0001 1.33333C13.0549 1.33333 14.0861 1.64613 14.9631 2.23216C15.8402 2.8182 16.5238 3.65115 16.9275 4.62569C17.3311 5.60023 17.4367 6.67258 17.231 7.70715C17.0252 8.74171 16.5172 9.69202 15.7713 10.4379C15.0255 11.1838 14.0751 11.6917 13.0406 11.8975C12.006 12.1033 10.9337 11.9977 9.95912 11.594C8.98458 11.1904 8.15163 10.5068 7.56559 9.62971C6.97956 8.75265 6.66677 7.7215 6.66677 6.66667C6.66831 5.25265 7.23071 3.897 8.23057 2.89714C9.23043 1.89728 10.5861 1.33488 12.0001 1.33333ZM12.0001 14.6667C7.52677 14.6667 3.43927 12.1121 1.33343 8C2.51778 5.67496 4.4118 3.78751 6.74093 2.61125C5.87135 3.73708 5.33343 5.13208 5.33343 6.66667C5.33343 8.43478 6.03581 10.1305 7.28605 11.3807C8.5363 12.631 10.232 13.3333 12.0001 13.3333C13.7682 13.3333 15.4639 12.631 16.7141 11.3807C17.9644 10.1305 18.6668 8.43478 18.6668 6.66667C18.6668 5.13208 18.1288 3.73708 17.2593 2.61125C19.5884 3.78751 21.4824 5.67496 22.6668 8C20.5613 12.1121 16.4734 14.6667 12.0001 14.6667Z" fill="#F6F6F6"/>
</svg>
