<svg width="24" height="22" viewBox="0 0 24 22" fill="none" xmlns="http://www.w3.org/2000/svg">
<path d="M23.8954 9.49443L21.3338 7.43234V3.33151C21.3338 3.2431 21.2987 3.15832 21.2361 3.09581C21.1736 3.0333 21.0888 2.99818 21.0004 2.99818H20.3338C20.2454 2.99818 20.1606 3.0333 20.0981 3.09581C20.0356 3.15832 20.0004 3.2431 20.0004 3.33151V6.35651L12.9421 0.664843C12.6759 0.448754 12.3435 0.330811 12.0006 0.330811C11.6578 0.330811 11.3254 0.448754 11.0592 0.664843L0.105856 9.49443C0.0769207 9.51753 0.0528632 9.54616 0.0350807 9.57864C0.0172983 9.61112 0.00614504 9.64681 0.00226862 9.68363C-0.00160779 9.72046 0.00186983 9.75769 0.0124996 9.79316C0.0231293 9.82863 0.0406994 9.86164 0.0641898 9.89026L0.655856 10.6194C0.679369 10.6484 0.708372 10.6726 0.741208 10.6904C0.774043 10.7082 0.810067 10.7193 0.847218 10.7232C0.884369 10.7271 0.921919 10.7236 0.957719 10.7129C0.993519 10.7023 1.02687 10.6846 1.05586 10.6611L2.66711 9.36151V20.9982C2.66711 21.175 2.73734 21.3446 2.86237 21.4696C2.98739 21.5946 3.15696 21.6648 3.33377 21.6648H20.6671C20.8439 21.6648 21.0135 21.5946 21.1385 21.4696C21.2635 21.3446 21.3338 21.175 21.3338 20.9982V9.36568L22.9504 10.6694C23.009 10.7169 23.0841 10.7392 23.1591 10.7313C23.2341 10.7235 23.3029 10.6863 23.3504 10.6278L23.9417 9.89859C23.9867 9.83794 24.007 9.76243 23.9984 9.68737C23.9899 9.61231 23.953 9.54333 23.8954 9.49443ZM14.0004 20.3315H10.0004V13.6648H14.0004V20.3315ZM20.0004 20.3315H15.3338V12.9982C15.3338 12.8214 15.2635 12.6518 15.1385 12.5268C15.0135 12.4017 14.8439 12.3315 14.6671 12.3315H9.33377C9.15696 12.3315 8.98739 12.4017 8.86237 12.5268C8.73734 12.6518 8.66711 12.8214 8.66711 12.9982V20.3315H4.00044V8.28651L11.8217 1.97818C11.8711 1.93776 11.9329 1.91568 11.9967 1.91568C12.0605 1.91568 12.1223 1.93776 12.1717 1.97818L20.0004 8.28984V20.3315Z" fill="#F6F6F6"/>
</svg>
