<svg width="22" height="22" viewBox="0 0 22 22" fill="none" xmlns="http://www.w3.org/2000/svg">
<path d="M2.58438 13.9882C2.00529 13.1352 1.66659 12.1065 1.66659 11.0002C1.66659 8.05937 4.05913 5.66683 6.99992 5.66683H13.6666V8.3322C13.6666 9.55049 15.1746 10.1312 15.991 9.22416L18.991 5.89216C19.4473 5.38512 19.4473 4.61533 18.991 4.10824L15.991 0.775992C15.176 -0.129591 13.6666 0.447576 13.6666 1.66791V4.33349H6.99992C3.32388 4.33349 0.333252 7.32412 0.333252 11.0002C0.333252 12.4132 0.775419 13.7248 1.52838 14.8043C1.71284 15.0688 2.09529 15.0933 2.31109 14.8537L2.53975 14.5997C2.69254 14.4299 2.71263 14.1772 2.58438 13.9882ZM14.9999 1.66683L17.9999 5.00016L14.9999 8.33349V1.66683ZM20.4715 7.19603C20.287 6.93153 19.9045 6.90703 19.6888 7.14666L19.4601 7.40066C19.3073 7.57037 19.2872 7.82316 19.4155 8.01212C19.9945 8.86508 20.3333 9.89378 20.3333 11.0002C20.3333 13.9409 17.9407 16.3335 14.9999 16.3335H8.33325V13.6681C8.33325 12.4498 6.82525 11.8691 6.00888 12.7762L3.00888 16.1082C2.55254 16.6152 2.5525 17.385 3.00888 17.8921L6.00888 21.2244C6.82383 22.1299 8.33325 21.5528 8.33325 20.3324V17.6668H14.9999C18.676 17.6668 21.6666 14.6762 21.6666 11.0002C21.6666 9.58712 21.2244 8.27553 20.4715 7.19603ZM6.99992 20.3335L3.99992 17.0002L6.99992 13.6668V20.3335Z" fill="#F6F6F6"/>
</svg>
