<svg width="14" height="14" viewBox="0 0 14 14" fill="none" xmlns="http://www.w3.org/2000/svg">
<path d="M7.23555 13.8585L7.45651 13.6375C7.60295 13.4911 7.60295 13.2537 7.45651 13.1072L1.87858 7.52926H13.625C13.8321 7.52926 14 7.36135 14 7.15426V6.84176C14 6.63466 13.8321 6.46676 13.625 6.46676H1.87858L7.45651 0.888819C7.60295 0.742382 7.60295 0.504944 7.45651 0.358476L7.23555 0.137538C7.08911 -0.00889942 6.85167 -0.00889942 6.70523 0.137538L0.109889 6.73285C-0.0365483 6.87929 -0.0365483 7.11673 0.109889 7.2632L6.70523 13.8585C6.85167 14.0049 7.08911 14.0049 7.23555 13.8585Z" fill="#464646"/>
</svg>
