<svg width="16" height="15" viewBox="0 0 16 15" fill="none" xmlns="http://www.w3.org/2000/svg">
<path d="M10.5 0.22168C8.98125 0.22168 7.60625 0.50293 6.60938 0.95293C6.58125 0.96543 5 1.60918 5 2.72168V3.24355C2.37812 3.35293 0 4.32793 0 5.72168V11.7217C0 13.1029 2.4625 14.2217 5.5 14.2217C8.5375 14.2217 11 13.1029 11 11.7217V11.2092C13.8031 11.0936 16 10.0248 16 8.72168V2.72168C16 1.56543 14.0594 0.22168 10.5 0.22168ZM10 11.7217C10 12.1561 8.42188 13.2217 5.5 13.2217C2.57812 13.2217 1 12.1561 1 11.7217V10.1561C1.99375 10.7998 3.6375 11.2217 5.5 11.2217C7.3625 11.2217 9.00625 10.7998 10 10.1561V11.7217ZM10 8.72168C10 9.15605 8.42188 10.2217 5.5 10.2217C2.57812 10.2217 1 9.15605 1 8.72168V7.15605C1.99375 7.7998 3.6375 8.22168 5.5 8.22168C7.3625 8.22168 9.00625 7.7998 10 7.15605V8.72168ZM5.5 7.22168C2.96875 7.22168 0.915625 6.5498 0.915625 5.72168C0.915625 4.89355 2.96875 4.22168 5.5 4.22168C8.03125 4.22168 10.0844 4.89355 10.0844 5.72168C10.0844 6.5498 8.03125 7.22168 5.5 7.22168ZM15 8.72168C15 9.13105 13.5938 10.0842 11 10.1998V8.19668C12.65 8.12793 14.0969 7.74043 15 7.15605V8.72168ZM15 5.72168C15 6.13105 13.5906 7.07793 11 7.19668V5.72168C11 5.54668 10.9469 5.37793 10.8719 5.2123C12.5781 5.15918 14.0719 4.75918 15 4.15605V5.72168ZM10.5 4.22168C10.2719 4.22168 10.0625 4.20605 9.84688 4.19355C8.69375 3.51543 7.19063 3.3123 6.23438 3.25605C6.0375 3.09043 5.91875 2.9123 5.91875 2.72168C5.91875 1.89355 7.97188 1.22168 10.5031 1.22168C13.0344 1.22168 15.0875 1.89355 15.0875 2.72168C15.0875 3.5498 13.0312 4.22168 10.5 4.22168Z" fill="#464646"/>
</svg>
